<svg xmlns="http://www.w3.org/2000/svg" viewBox="0 0 200 200" width="200" height="200">
  <defs>
    <radialGradient id="lm-bg" cx="50%" cy="35%" r="75%"><stop offset="0%" stop-color="#ffffff"/><stop offset="100%" stop-color="#f4f4f6"/></radialGradient>
    <radialGradient id="lm-mane" cx="40%" cy="30%" r="75%"><stop offset="0%" stop-color="#c86050"/><stop offset="55%" stop-color="#8a2a1a"/><stop offset="100%" stop-color="#3a0808"/></radialGradient>
    <radialGradient id="lm-face" cx="40%" cy="35%" r="70%"><stop offset="0%" stop-color="#f0a080"/><stop offset="55%" stop-color="#c86040"/><stop offset="100%" stop-color="#5a1a10"/></radialGradient>
  </defs>
  <rect x="30" y="30" width="140" height="140" rx="30" fill="url(#lm-bg)"/>
  <rect x="30.5" y="30.5" width="139" height="139" rx="29.5" fill="none" stroke="#0a0a0a" stroke-width="2"/>
  <rect x="36" y="36" width="128" height="128" rx="24" fill="none" stroke="rgba(122,47,31,.4)" stroke-width="1"/>
  <g transform="translate(100,100) scale(0.9) translate(-100,-100)">
    <circle cx="100" cy="100" r="46" fill="url(#lm-mane)" stroke="#0a0a0a" stroke-width="2.6"/>
    <circle cx="100" cy="102" r="32" fill="url(#lm-face)" stroke="#0a0a0a" stroke-width="2.2"/>
    <ellipse cx="88" cy="96" rx="4" ry="5" fill="#0a0a0a"/>
    <ellipse cx="112" cy="96" rx="4" ry="5" fill="#0a0a0a"/>
    <path d="M92 112 L100 118 L108 112" stroke="#0a0a0a" stroke-width="2" fill="none" stroke-linecap="round"/>
    <path d="M96 122 Q100 126 104 122" stroke="#0a0a0a" stroke-width="1.6" fill="none"/>
    <text x="152" y="46" text-anchor="middle" font-family="Georgia,serif" font-size="18" font-weight="900" fill="#e8c25c" stroke="#0a0a0a" stroke-width="1" paint-order="stroke">M</text>
    <path d="M100 66 Q96 74 100 78 Q104 74 100 66" fill="#ffd0c0" opacity=".7"/>
    <ellipse cx="86" cy="80" rx="5" ry="3" fill="#fff" opacity=".5"/>
    <circle cx="46" cy="56" r="2" fill="#ffe9a0"/>
    <circle cx="52" cy="142" r="2.5" fill="#ffe9a0" opacity=".8"/>
  </g>
</svg>
