<svg xmlns="http://www.w3.org/2000/svg" viewBox="0 0 200 200" width="200" height="200">
  <defs>
    <radialGradient id="st-bg" cx="50%" cy="35%" r="75%"><stop offset="0%" stop-color="#ffffff"/><stop offset="100%" stop-color="#f4f4f6"/></radialGradient>
    <radialGradient id="st-pink" cx="38%" cy="32%" r="72%"><stop offset="0%" stop-color="#ffd0e8"/><stop offset="55%" stop-color="#c54f9a"/><stop offset="100%" stop-color="#6a2050"/></radialGradient>
    <radialGradient id="st-moon" cx="40%" cy="35%" r="75%"><stop offset="0%" stop-color="#fff8e8"/><stop offset="55%" stop-color="#ffe0a0"/><stop offset="100%" stop-color="#c88a30"/></radialGradient>
    <linearGradient id="st-gold" x1="0" y1="0" x2="0" y2="1"><stop offset="0%" stop-color="#ffe9a0"/><stop offset="45%" stop-color="#f0c84a"/><stop offset="100%" stop-color="#a07818"/></linearGradient>
  </defs>
  <rect x="30" y="30" width="140" height="140" rx="30" fill="url(#st-bg)"/>
  <rect x="30.5" y="30.5" width="139" height="139" rx="29.5" fill="none" stroke="#0a0a0a" stroke-width="2"/>
  <rect x="36" y="36" width="128" height="128" rx="24" fill="none" stroke="rgba(197,79,154,.35)" stroke-width="1"/>
  <g transform="translate(100,100) scale(0.86) translate(-100,-100)">
    <circle cx="100" cy="106" r="46" fill="url(#st-pink)" opacity=".12"/>
    <path d="M112 62 A38 38 0 1 0 112 148 A30 30 0 1 1 112 62 Z" fill="url(#st-moon)" stroke="#0a0a0a" stroke-width="2.6" stroke-linejoin="round"/>
    <path d="M104 78 A26 26 0 0 0 104 132" stroke="#fff8e8" stroke-width="3" fill="none" opacity=".85" stroke-linecap="round"/>
    <path d="M84 50 L84 36 L92 42 L100 30 L108 42 L116 36 L116 50 Z" fill="url(#st-gold)" stroke="#0a0a0a" stroke-width="2" stroke-linejoin="round"/>
    <rect x="84" y="50" width="32" height="4" rx="1.5" fill="url(#st-gold)" stroke="#0a0a0a" stroke-width="1.4"/>
    <circle cx="100" cy="40" r="2" fill="#e5484d" stroke="#0a0a0a" stroke-width=".8"/>
    <path d="M150 78 L152 84 L158 86 L152 88 L150 94 L148 88 L142 86 L148 84 Z" fill="#ffd93d" stroke="#0a0a0a" stroke-width="1" stroke-linejoin="round"/>
    <path d="M48 92 L49.5 96 L54 97.5 L49.5 99 L48 103 L46.5 99 L42 97.5 L46.5 96 Z" fill="#ffd93d" stroke="#0a0a0a" stroke-width=".9" stroke-linejoin="round"/>
    <path d="M150 132 L151 135 L154 136 L151 137 L150 140 L149 137 L146 136 L149 135 Z" fill="#c54f9a" stroke="#0a0a0a" stroke-width=".8" stroke-linejoin="round"/>
    <circle cx="56" cy="140" r="2.2" fill="#c54f9a" opacity=".8"/>
    <circle cx="144" cy="60" r="1.8" fill="#ffd93d" opacity=".9"/>
  </g>
</svg>
