<svg xmlns="http://www.w3.org/2000/svg" viewBox="0 0 800 450" preserveAspectRatio="xMidYMid slice"><defs><linearGradient id="bg" x1="0" y1="0" x2="0" y2="1"><stop offset="0" stop-color="#4a2f7a"/><stop offset="1" stop-color="#1a0722"/></linearGradient><radialGradient id="glow" cx="0.5" cy="0.45" r="0.65"><stop offset="0" stop-color="#a05ee0" stop-opacity=".55"/><stop offset="1" stop-color="#a05ee0" stop-opacity="0"/></radialGradient></defs><rect width="800" height="450" fill="url(#bg)"/><rect width="800" height="450" fill="url(#glow)"/><line x1="520.0" y1="225.0" x2="900.0" y2="225.0" stroke="#ffe37a" stroke-width="1.5" opacity=".22"/><line x1="514.1" y1="262.1" x2="875.5" y2="379.5" stroke="#ffe37a" stroke-width="1.5" opacity=".22"/><line x1="497.1" y1="295.5" x2="804.5" y2="518.9" stroke="#ffe37a" stroke-width="1.5" opacity=".22"/><line x1="470.5" y1="322.1" x2="693.9" y2="629.5" stroke="#ffe37a" stroke-width="1.5" opacity=".22"/><line x1="437.1" y1="339.1" x2="554.5" y2="700.5" stroke="#ffe37a" stroke-width="1.5" opacity=".22"/><line x1="400.0" y1="345.0" x2="400.0" y2="725.0" stroke="#ffe37a" stroke-width="1.5" opacity=".22"/><line x1="362.9" y1="339.1" x2="245.5" y2="700.5" stroke="#ffe37a" stroke-width="1.5" opacity=".22"/><line x1="329.5" y1="322.1" x2="106.1" y2="629.5" stroke="#ffe37a" stroke-width="1.5" opacity=".22"/><line x1="302.9" y1="295.5" x2="-4.5" y2="518.9" stroke="#ffe37a" stroke-width="1.5" opacity=".22"/><line x1="285.9" y1="262.1" x2="-75.5" y2="379.5" stroke="#ffe37a" stroke-width="1.5" opacity=".22"/><line x1="280.0" y1="225.0" x2="-100.0" y2="225.0" stroke="#ffe37a" stroke-width="1.5" opacity=".22"/><line x1="285.9" y1="187.9" x2="-75.5" y2="70.5" stroke="#ffe37a" stroke-width="1.5" opacity=".22"/><line x1="302.9" y1="154.5" x2="-4.5" y2="-68.9" stroke="#ffe37a" stroke-width="1.5" opacity=".22"/><line x1="329.5" y1="127.9" x2="106.1" y2="-179.5" stroke="#ffe37a" stroke-width="1.5" opacity=".22"/><line x1="362.9" y1="110.9" x2="245.5" y2="-250.5" stroke="#ffe37a" stroke-width="1.5" opacity=".22"/><line x1="400.0" y1="105.0" x2="400.0" y2="-275.0" stroke="#ffe37a" stroke-width="1.5" opacity=".22"/><line x1="437.1" y1="110.9" x2="554.5" y2="-250.5" stroke="#ffe37a" stroke-width="1.5" opacity=".22"/><line x1="470.5" y1="127.9" x2="693.9" y2="-179.5" stroke="#ffe37a" stroke-width="1.5" opacity=".22"/><line x1="497.1" y1="154.5" x2="804.5" y2="-68.9" stroke="#ffe37a" stroke-width="1.5" opacity=".22"/><line x1="514.1" y1="187.9" x2="875.5" y2="70.5" stroke="#ffe37a" stroke-width="1.5" opacity=".22"/><circle cx="0.0" cy="0.0" r="1.5" fill="#ffe37a" opacity="0.30"/><circle cx="132.5" cy="369.5" r="2.7" fill="#ffe37a" opacity="0.57"/><circle cx="652.8" cy="297.4" r="2.9" fill="#ffe37a" opacity="0.88"/><circle cx="444.8" cy="188.1" r="2.7" fill="#ffe37a" opacity="0.57"/><circle cx="129.5" cy="312.6" r="1.9" fill="#ffe37a" opacity="0.76"/><circle cx="460.7" cy="392.8" r="2.5" fill="#ffe37a" opacity="0.50"/><circle cx="362.5" cy="268.9" r="2.9" fill="#ffe37a" opacity="0.89"/><circle cx="91.5" cy="311.7" r="2.7" fill="#ffe37a" opacity="0.65"/><circle cx="379.7" cy="199.9" r="1.8" fill="#ffe37a" opacity="0.66"/><circle cx="13.3" cy="220.5" r="1.5" fill="#ffe37a" opacity="0.78"/><circle cx="294.3" cy="93.7" r="3.7" fill="#ffe37a" opacity="0.48"/><circle cx="554.2" cy="343.2" r="2.4" fill="#ffe37a" opacity="0.82"/><circle cx="75.3" cy="348.6" r="3.7" fill="#ffe37a" opacity="0.40"/><circle cx="113.2" cy="389.7" r="3.2" fill="#ffe37a" opacity="0.35"/><circle cx="44.6" cy="234.9" r="2.5" fill="#ffe37a" opacity="0.52"/><circle cx="714.6" cy="203.9" r="3.3" fill="#ffe37a" opacity="0.66"/><circle cx="37.7" cy="81.6" r="1.8" fill="#ffe37a" opacity="0.74"/><circle cx="796.1" cy="324.9" r="1.8" fill="#ffe37a" opacity="0.53"/><circle cx="244.9" cy="71.5" r="2.4" fill="#ffe37a" opacity="0.79"/><circle cx="14.8" cy="190.9" r="2.0" fill="#ffe37a" opacity="0.75"/><circle cx="352.5" cy="281.7" r="1.9" fill="#ffe37a" opacity="0.46"/><circle cx="743.5" cy="251.6" r="1.5" fill="#ffe37a" opacity="0.84"/><circle cx="417.6" cy="221.0" r="2.8" fill="#ffe37a" opacity="0.42"/><circle cx="439.7" cy="19.4" r="2.2" fill="#ffe37a" opacity="0.57"/><circle cx="403.1" cy="413.9" r="1.9" fill="#ffe37a" opacity="0.46"/><circle cx="506.7" cy="222.1" r="2.8" fill="#ffe37a" opacity="0.74"/><circle cx="560.8" cy="239.4" r="1.9" fill="#ffe37a" opacity="0.56"/><circle cx="110.0" cy="14.1" r="2.4" fill="#ffe37a" opacity="0.79"/><circle cx="244.1" cy="328.4" r="1.7" fill="#ffe37a" opacity="0.56"/><circle cx="297.0" cy="413.1" r="2.3" fill="#ffe37a" opacity="0.73"/><circle cx="217.4" cy="399.7" r="3.3" fill="#ffe37a" opacity="0.84"/><circle cx="91.5" cy="321.6" r="3.1" fill="#ffe37a" opacity="0.84"/><circle cx="382.2" cy="353.4" r="3.5" fill="#ffe37a" opacity="0.85"/><circle cx="447.4" cy="47.5" r="2.6" fill="#ffe37a" opacity="0.57"/><circle cx="502.0" cy="136.4" r="1.7" fill="#ffe37a" opacity="0.31"/><circle cx="275.9" cy="367.0" r="3.5" fill="#ffe37a" opacity="0.68"/><circle cx="521.3" cy="293.5" r="3.1" fill="#ffe37a" opacity="0.88"/><circle cx="262.9" cy="346.1" r="2.9" fill="#ffe37a" opacity="0.35"/><circle cx="14.6" cy="236.7" r="2.6" fill="#ffe37a" opacity="0.67"/><circle cx="225.0" cy="358.7" r="3.5" fill="#ffe37a" opacity="0.68"/><circle cx="304.6" cy="103.7" r="2.1" fill="#ffe37a" opacity="0.65"/><circle cx="269.0" cy="249.0" r="1.7" fill="#ffe37a" opacity="0.68"/><circle cx="451.7" cy="210.0" r="2.2" fill="#ffe37a" opacity="0.46"/><circle cx="240.6" cy="356.2" r="2.1" fill="#ffe37a" opacity="0.44"/><circle cx="583.8" cy="405.5" r="3.2" fill="#ffe37a" opacity="0.68"/><circle cx="762.8" cy="195.4" r="3.3" fill="#ffe37a" opacity="0.60"/><circle cx="624.9" cy="368.1" r="3.3" fill="#ffe37a" opacity="0.81"/><circle cx="656.0" cy="52.4" r="3.2" fill="#ffe37a" opacity="0.66"/><circle cx="261.2" cy="15.4" r="1.7" fill="#ffe37a" opacity="0.70"/><circle cx="674.0" cy="24.9" r="3.5" fill="#ffe37a" opacity="0.51"/><circle cx="544.7" cy="245.4" r="3.5" fill="#ffe37a" opacity="0.76"/><circle cx="592.9" cy="137.7" r="3.1" fill="#ffe37a" opacity="0.88"/><circle cx="635.4" cy="158.7" r="3.6" fill="#ffe37a" opacity="0.67"/><circle cx="303.5" cy="57.2" r="2.2" fill="#ffe37a" opacity="0.59"/><circle cx="707.7" cy="378.0" r="1.7" fill="#ffe37a" opacity="0.54"/><circle cx="652.5" cy="208.8" r="2.5" fill="#ffe37a" opacity="0.60"/><circle cx="180.3" cy="211.8" r="2.6" fill="#ffe37a" opacity="0.53"/><circle cx="597.2" cy="70.3" r="3.1" fill="#ffe37a" opacity="0.82"/><circle cx="23.6" cy="134.0" r="2.6" fill="#ffe37a" opacity="0.71"/><circle cx="697.8" cy="266.9" r="2.4" fill="#ffe37a" opacity="0.49"/><circle cx="287.9" cy="347.2" r="3.6" fill="#ffe37a" opacity="0.39"/><circle cx="678.1" cy="425.2" r="3.3" fill="#ffe37a" opacity="0.72"/><circle cx="593.6" cy="100.4" r="3.5" fill="#ffe37a" opacity="0.57"/><circle cx="730.4" cy="159.6" r="1.8" fill="#ffe37a" opacity="0.87"/><circle cx="347.5" cy="304.6" r="2.7" fill="#ffe37a" opacity="0.79"/><circle cx="379.5" cy="228.2" r="2.9" fill="#ffe37a" opacity="0.49"/><circle cx="373.3" cy="18.1" r="1.8" fill="#ffe37a" opacity="0.83"/><circle cx="538.8" cy="231.4" r="1.9" fill="#ffe37a" opacity="0.87"/><circle cx="460.1" cy="132.7" r="3.4" fill="#ffe37a" opacity="0.82"/><circle cx="399.8" cy="115.3" r="3.5" fill="#ffe37a" opacity="0.62"/><circle cx="626.3" cy="379.5" r="2.1" fill="#ffe37a" opacity="0.71"/><circle cx="457.0" cy="43.0" r="3.3" fill="#ffe37a" opacity="0.56"/><circle cx="226.5" cy="187.6" r="3.7" fill="#ffe37a" opacity="0.53"/><circle cx="511.8" cy="251.0" r="2.3" fill="#ffe37a" opacity="0.38"/><circle cx="184.7" cy="47.1" r="2.1" fill="#ffe37a" opacity="0.86"/><circle cx="234.1" cy="21.3" r="2.6" fill="#ffe37a" opacity="0.85"/><circle cx="44.0" cy="388.5" r="3.3" fill="#ffe37a" opacity="0.86"/><circle cx="44.3" cy="426.8" r="2.7" fill="#ffe37a" opacity="0.79"/><circle cx="268.8" cy="227.8" r="2.3" fill="#ffe37a" opacity="0.62"/><circle cx="437.9" cy="3.6" r="2.4" fill="#ffe37a" opacity="0.41"/><circle cx="780.6" cy="114.4" r="3.0" fill="#ffe37a" opacity="0.38"/><circle cx="364.8" cy="242.2" r="1.7" fill="#ffe37a" opacity="0.65"/><circle cx="486.5" cy="344.3" r="3.1" fill="#ffe37a" opacity="0.52"/><circle cx="285.7" cy="253.5" r="2.8" fill="#ffe37a" opacity="0.68"/><circle cx="544.3" cy="184.9" r="2.9" fill="#ffe37a" opacity="0.52"/><circle cx="733.2" cy="129.8" r="3.6" fill="#ffe37a" opacity="0.50"/><circle cx="352.9" cy="75.5" r="1.9" fill="#ffe37a" opacity="0.79"/><circle cx="454.6" cy="98.6" r="1.6" fill="#ffe37a" opacity="0.32"/><circle cx="376.5" cy="335.2" r="3.5" fill="#ffe37a" opacity="0.44"/><circle cx="55.3" cy="5.7" r="2.1" fill="#ffe37a" opacity="0.89"/><circle cx="569.9" cy="165.0" r="2.4" fill="#ffe37a" opacity="0.72"/><circle cx="64.1" cy="85.4" r="2.1" fill="#ffe37a" opacity="0.58"/><circle cx="326.8" cy="86.7" r="2.5" fill="#ffe37a" opacity="0.48"/><circle cx="31.9" cy="22.6" r="2.1" fill="#ffe37a" opacity="0.49"/><circle cx="691.4" cy="349.6" r="2.3" fill="#ffe37a" opacity="0.72"/><circle cx="243.2" cy="3.7" r="3.4" fill="#ffe37a" opacity="0.82"/><circle cx="89.1" cy="204.8" r="2.0" fill="#ffe37a" opacity="0.72"/><circle cx="395.4" cy="282.9" r="2.6" fill="#ffe37a" opacity="0.75"/><circle cx="339.4" cy="314.9" r="2.7" fill="#ffe37a" opacity="0.77"/><circle cx="283.7" cy="419.0" r="1.6" fill="#ffe37a" opacity="0.56"/><circle cx="723.5" cy="241.5" r="1.8" fill="#ffe37a" opacity="0.67"/><circle cx="586.7" cy="426.2" r="2.5" fill="#ffe37a" opacity="0.43"/><circle cx="159.7" cy="31.8" r="2.0" fill="#ffe37a" opacity="0.85"/><circle cx="449.2" cy="53.6" r="3.6" fill="#ffe37a" opacity="0.54"/><circle cx="617.9" cy="356.0" r="2.4" fill="#ffe37a" opacity="0.57"/><circle cx="65.9" cy="438.0" r="3.6" fill="#ffe37a" opacity="0.48"/><circle cx="535.8" cy="229.9" r="3.4" fill="#ffe37a" opacity="0.50"/><circle cx="360.5" cy="283.6" r="3.5" fill="#ffe37a" opacity="0.89"/><circle cx="139.4" cy="406.6" r="2.8" fill="#ffe37a" opacity="0.52"/><circle cx="323.4" cy="393.2" r="3.1" fill="#ffe37a" opacity="0.74"/><rect x="130" y="70" width="80" height="48" rx="14" fill="#fff" opacity="0.06"/><circle cx="170" cy="94" r="14" fill="#5b9bd5"/><rect x="218" y="70" width="80" height="48" rx="14" fill="#fff" opacity="0.06"/><circle cx="258" cy="94" r="14" fill="#5cb85c"/><rect x="306" y="70" width="80" height="48" rx="14" fill="#fff" opacity="0.06"/><circle cx="346" cy="94" r="14" fill="#9b59b6"/><rect x="394" y="70" width="80" height="48" rx="14" fill="#fff" opacity="0.06"/><circle cx="434" cy="94" r="14" fill="#e74c3c"/><rect x="482" y="70" width="80" height="48" rx="14" fill="#fff" opacity="0.06"/><circle cx="522" cy="94" r="14" fill="#e67e22"/><rect x="570" y="70" width="80" height="48" rx="14" fill="#fff" opacity="0.06"/><circle cx="610" cy="94" r="14" fill="#f1c40f"/><rect x="130" y="126" width="80" height="48" rx="14" fill="#d63b8a" opacity="0.22"/><rect x="130" y="126" width="80" height="48" rx="14" fill="none" stroke="#ff77c7" stroke-width="2"/><circle cx="170" cy="150" r="14" fill="#5b9bd5"/><rect x="218" y="126" width="80" height="48" rx="14" fill="#d63b8a" opacity="0.22"/><rect x="218" y="126" width="80" height="48" rx="14" fill="none" stroke="#ff77c7" stroke-width="2"/><circle cx="258" cy="150" r="14" fill="#5cb85c"/><rect x="306" y="126" width="80" height="48" rx="14" fill="#d63b8a" opacity="0.22"/><rect x="306" y="126" width="80" height="48" rx="14" fill="none" stroke="#ff77c7" stroke-width="2"/><circle cx="346" cy="150" r="14" fill="#9b59b6"/><rect x="394" y="126" width="80" height="48" rx="14" fill="#d63b8a" opacity="0.22"/><rect x="394" y="126" width="80" height="48" rx="14" fill="none" stroke="#ff77c7" stroke-width="2"/><circle cx="434" cy="150" r="14" fill="#e74c3c"/><rect x="482" y="126" width="80" height="48" rx="14" fill="#d63b8a" opacity="0.22"/><rect x="482" y="126" width="80" height="48" rx="14" fill="none" stroke="#ff77c7" stroke-width="2"/><circle cx="522" cy="150" r="14" fill="#e67e22"/><rect x="570" y="126" width="80" height="48" rx="14" fill="#fff" opacity="0.06"/><circle cx="610" cy="150" r="14" fill="#f1c40f"/><rect x="130" y="182" width="80" height="48" rx="14" fill="#d63b8a" opacity="0.22"/><rect x="130" y="182" width="80" height="48" rx="14" fill="none" stroke="#ff77c7" stroke-width="2"/><circle cx="170" cy="206" r="14" fill="#5b9bd5"/><rect x="218" y="182" width="80" height="48" rx="14" fill="#d63b8a" opacity="0.22"/><rect x="218" y="182" width="80" height="48" rx="14" fill="none" stroke="#ff77c7" stroke-width="2"/><circle cx="258" cy="206" r="14" fill="#5cb85c"/><rect x="306" y="182" width="80" height="48" rx="14" fill="#d63b8a" opacity="0.22"/><rect x="306" y="182" width="80" height="48" rx="14" fill="none" stroke="#ff77c7" stroke-width="2"/><circle cx="346" cy="206" r="14" fill="#9b59b6"/><rect x="394" y="182" width="80" height="48" rx="14" fill="#d63b8a" opacity="0.22"/><rect x="394" y="182" width="80" height="48" rx="14" fill="none" stroke="#ff77c7" stroke-width="2"/><circle cx="434" cy="206" r="14" fill="#e74c3c"/><rect x="482" y="182" width="80" height="48" rx="14" fill="#d63b8a" opacity="0.22"/><rect x="482" y="182" width="80" height="48" rx="14" fill="none" stroke="#ff77c7" stroke-width="2"/><circle cx="522" cy="206" r="14" fill="#e67e22"/><rect x="570" y="182" width="80" height="48" rx="14" fill="#d63b8a" opacity="0.22"/><rect x="570" y="182" width="80" height="48" rx="14" fill="none" stroke="#ff77c7" stroke-width="2"/><circle cx="610" cy="206" r="14" fill="#f1c40f"/><rect x="130" y="238" width="80" height="48" rx="14" fill="#d63b8a" opacity="0.22"/><rect x="130" y="238" width="80" height="48" rx="14" fill="none" stroke="#ff77c7" stroke-width="2"/><circle cx="170" cy="262" r="14" fill="#5b9bd5"/><rect x="218" y="238" width="80" height="48" rx="14" fill="#d63b8a" opacity="0.22"/><rect x="218" y="238" width="80" height="48" rx="14" fill="none" stroke="#ff77c7" stroke-width="2"/><circle cx="258" cy="262" r="14" fill="#5cb85c"/><rect x="306" y="238" width="80" height="48" rx="14" fill="#d63b8a" opacity="0.22"/><rect x="306" y="238" width="80" height="48" rx="14" fill="none" stroke="#ff77c7" stroke-width="2"/><circle cx="346" cy="262" r="14" fill="#9b59b6"/><rect x="394" y="238" width="80" height="48" rx="14" fill="#d63b8a" opacity="0.22"/><rect x="394" y="238" width="80" height="48" rx="14" fill="none" stroke="#ff77c7" stroke-width="2"/><circle cx="434" cy="262" r="14" fill="#e74c3c"/><rect x="482" y="238" width="80" height="48" rx="14" fill="#d63b8a" opacity="0.22"/><rect x="482" y="238" width="80" height="48" rx="14" fill="none" stroke="#ff77c7" stroke-width="2"/><circle cx="522" cy="262" r="14" fill="#e67e22"/><rect x="570" y="238" width="80" height="48" rx="14" fill="#d63b8a" opacity="0.22"/><rect x="570" y="238" width="80" height="48" rx="14" fill="none" stroke="#ff77c7" stroke-width="2"/><circle cx="610" cy="262" r="14" fill="#f1c40f"/><rect x="130" y="294" width="80" height="48" rx="14" fill="#fff" opacity="0.06"/><circle cx="170" cy="318" r="14" fill="#5b9bd5"/><rect x="218" y="294" width="80" height="48" rx="14" fill="#fff" opacity="0.06"/><circle cx="258" cy="318" r="14" fill="#5cb85c"/><rect x="306" y="294" width="80" height="48" rx="14" fill="#fff" opacity="0.06"/><circle cx="346" cy="318" r="14" fill="#9b59b6"/><rect x="394" y="294" width="80" height="48" rx="14" fill="#fff" opacity="0.06"/><circle cx="434" cy="318" r="14" fill="#e74c3c"/><rect x="482" y="294" width="80" height="48" rx="14" fill="#fff" opacity="0.06"/><circle cx="522" cy="318" r="14" fill="#e67e22"/><rect x="570" y="294" width="80" height="48" rx="14" fill="#fff" opacity="0.06"/><circle cx="610" cy="318" r="14" fill="#f1c40f"/><rect x="300" y="18" width="200" height="36" rx="18" fill="none" stroke="#e6c200" stroke-width="2"/><text x="400" y="42" text-anchor="middle" font-size="15" font-weight="700" fill="#e6c200" font-family="system-ui,sans-serif" letter-spacing="2">S U P E R  W I N</text><text x="400" y="392" text-anchor="middle" font-size="42" font-weight="900" fill="#ffe37a" font-family="system-ui,sans-serif" letter-spacing="3">SUPER WIN</text><text x="400" y="424" text-anchor="middle" font-size="14" font-weight="500" fill="rgba(255,255,255,.65)" font-family="system-ui,sans-serif" letter-spacing="5">+ ¥ 1 0 0 0 0</text></svg>