<svg xmlns="http://www.w3.org/2000/svg" viewBox="0 0 800 450" preserveAspectRatio="xMidYMid slice"><defs><linearGradient id="bg" x1="0" y1="0" x2="0" y2="1"><stop offset="0" stop-color="#7a2a5a"/><stop offset="1" stop-color="#2a0722"/></linearGradient><radialGradient id="glow" cx="0.5" cy="0.45" r="0.65"><stop offset="0" stop-color="#ff4d94" stop-opacity=".55"/><stop offset="1" stop-color="#ff4d94" stop-opacity="0"/></radialGradient></defs><rect width="800" height="450" fill="url(#bg)"/><rect width="800" height="450" fill="url(#glow)"/><circle cx="0.0" cy="0.0" r="1.5" fill="#fff" opacity="0.30"/><circle cx="132.5" cy="369.5" r="2.7" fill="#fff" opacity="0.57"/><circle cx="652.8" cy="297.4" r="2.9" fill="#fff" opacity="0.88"/><circle cx="444.8" cy="188.1" r="2.7" fill="#fff" opacity="0.57"/><circle cx="129.5" cy="312.6" r="1.9" fill="#fff" opacity="0.76"/><circle cx="460.7" cy="392.8" r="2.5" fill="#fff" opacity="0.50"/><circle cx="362.5" cy="268.9" r="2.9" fill="#fff" opacity="0.89"/><circle cx="91.5" cy="311.7" r="2.7" fill="#fff" opacity="0.65"/><circle cx="379.7" cy="199.9" r="1.8" fill="#fff" opacity="0.66"/><circle cx="13.3" cy="220.5" r="1.5" fill="#fff" opacity="0.78"/><circle cx="294.3" cy="93.7" r="3.7" fill="#fff" opacity="0.48"/><circle cx="554.2" cy="343.2" r="2.4" fill="#fff" opacity="0.82"/><circle cx="75.3" cy="348.6" r="3.7" fill="#fff" opacity="0.40"/><circle cx="113.2" cy="389.7" r="3.2" fill="#fff" opacity="0.35"/><circle cx="44.6" cy="234.9" r="2.5" fill="#fff" opacity="0.52"/><circle cx="714.6" cy="203.9" r="3.3" fill="#fff" opacity="0.66"/><circle cx="37.7" cy="81.6" r="1.8" fill="#fff" opacity="0.74"/><circle cx="796.1" cy="324.9" r="1.8" fill="#fff" opacity="0.53"/><circle cx="244.9" cy="71.5" r="2.4" fill="#fff" opacity="0.79"/><circle cx="14.8" cy="190.9" r="2.0" fill="#fff" opacity="0.75"/><circle cx="352.5" cy="281.7" r="1.9" fill="#fff" opacity="0.46"/><circle cx="743.5" cy="251.6" r="1.5" fill="#fff" opacity="0.84"/><circle cx="417.6" cy="221.0" r="2.8" fill="#fff" opacity="0.42"/><circle cx="439.7" cy="19.4" r="2.2" fill="#fff" opacity="0.57"/><circle cx="403.1" cy="413.9" r="1.9" fill="#fff" opacity="0.46"/><circle cx="506.7" cy="222.1" r="2.8" fill="#fff" opacity="0.74"/><circle cx="560.8" cy="239.4" r="1.9" fill="#fff" opacity="0.56"/><circle cx="110.0" cy="14.1" r="2.4" fill="#fff" opacity="0.79"/><circle cx="244.1" cy="328.4" r="1.7" fill="#fff" opacity="0.56"/><circle cx="297.0" cy="413.1" r="2.3" fill="#fff" opacity="0.73"/><circle cx="217.4" cy="399.7" r="3.3" fill="#fff" opacity="0.84"/><circle cx="91.5" cy="321.6" r="3.1" fill="#fff" opacity="0.84"/><circle cx="382.2" cy="353.4" r="3.5" fill="#fff" opacity="0.85"/><circle cx="447.4" cy="47.5" r="2.6" fill="#fff" opacity="0.57"/><circle cx="502.0" cy="136.4" r="1.7" fill="#fff" opacity="0.31"/><circle cx="275.9" cy="367.0" r="3.5" fill="#fff" opacity="0.68"/><circle cx="521.3" cy="293.5" r="3.1" fill="#fff" opacity="0.88"/><circle cx="262.9" cy="346.1" r="2.9" fill="#fff" opacity="0.35"/><circle cx="14.6" cy="236.7" r="2.6" fill="#fff" opacity="0.67"/><circle cx="225.0" cy="358.7" r="3.5" fill="#fff" opacity="0.68"/><rect x="130" y="70" width="80" height="48" rx="14" fill="#fff" opacity="0.06"/><circle cx="170" cy="94" r="14" fill="#5b9bd5"/><rect x="218" y="70" width="80" height="48" rx="14" fill="#fff" opacity="0.06"/><circle cx="258" cy="94" r="14" fill="#5cb85c"/><rect x="306" y="70" width="80" height="48" rx="14" fill="#fff" opacity="0.06"/><circle cx="346" cy="94" r="14" fill="#9b59b6"/><rect x="394" y="70" width="80" height="48" rx="14" fill="#fff" opacity="0.06"/><circle cx="434" cy="94" r="14" fill="#e74c3c"/><rect x="482" y="70" width="80" height="48" rx="14" fill="#fff" opacity="0.06"/><circle cx="522" cy="94" r="14" fill="#e67e22"/><rect x="570" y="70" width="80" height="48" rx="14" fill="#fff" opacity="0.06"/><circle cx="610" cy="94" r="14" fill="#f1c40f"/><rect x="130" y="126" width="80" height="48" rx="14" fill="#fff" opacity="0.06"/><circle cx="170" cy="150" r="14" fill="#5b9bd5"/><rect x="218" y="126" width="80" height="48" rx="14" fill="#fff" opacity="0.06"/><circle cx="258" cy="150" r="14" fill="#5cb85c"/><rect x="306" y="126" width="80" height="48" rx="14" fill="#fff" opacity="0.06"/><circle cx="346" cy="150" r="14" fill="#9b59b6"/><rect x="394" y="126" width="80" height="48" rx="14" fill="#fff" opacity="0.06"/><circle cx="434" cy="150" r="14" fill="#e74c3c"/><rect x="482" y="126" width="80" height="48" rx="14" fill="#fff" opacity="0.06"/><circle cx="522" cy="150" r="14" fill="#e67e22"/><rect x="570" y="126" width="80" height="48" rx="14" fill="#fff" opacity="0.06"/><circle cx="610" cy="150" r="14" fill="#f1c40f"/><rect x="130" y="182" width="80" height="48" rx="14" fill="#fff" opacity="0.06"/><circle cx="170" cy="206" r="14" fill="#5b9bd5"/><rect x="218" y="182" width="80" height="48" rx="14" fill="#fff" opacity="0.06"/><circle cx="258" cy="206" r="14" fill="#5cb85c"/><rect x="306" y="182" width="80" height="48" rx="14" fill="#fff" opacity="0.06"/><circle cx="346" cy="206" r="14" fill="#9b59b6"/><rect x="394" y="182" width="80" height="48" rx="14" fill="#fff" opacity="0.06"/><circle cx="434" cy="206" r="14" fill="#e74c3c"/><rect x="482" y="182" width="80" height="48" rx="14" fill="#fff" opacity="0.06"/><circle cx="522" cy="206" r="14" fill="#e67e22"/><rect x="570" y="182" width="80" height="48" rx="14" fill="#fff" opacity="0.06"/><circle cx="610" cy="206" r="14" fill="#f1c40f"/><rect x="130" y="238" width="80" height="48" rx="14" fill="#fff" opacity="0.06"/><circle cx="170" cy="262" r="14" fill="#5b9bd5"/><rect x="218" y="238" width="80" height="48" rx="14" fill="#fff" opacity="0.06"/><circle cx="258" cy="262" r="14" fill="#5cb85c"/><rect x="306" y="238" width="80" height="48" rx="14" fill="#fff" opacity="0.06"/><circle cx="346" cy="262" r="14" fill="#9b59b6"/><rect x="394" y="238" width="80" height="48" rx="14" fill="#fff" opacity="0.06"/><circle cx="434" cy="262" r="14" fill="#e74c3c"/><rect x="482" y="238" width="80" height="48" rx="14" fill="#fff" opacity="0.06"/><circle cx="522" cy="262" r="14" fill="#e67e22"/><rect x="570" y="238" width="80" height="48" rx="14" fill="#fff" opacity="0.06"/><circle cx="610" cy="262" r="14" fill="#f1c40f"/><rect x="130" y="294" width="80" height="48" rx="14" fill="#fff" opacity="0.06"/><circle cx="170" cy="318" r="14" fill="#5b9bd5"/><rect x="218" y="294" width="80" height="48" rx="14" fill="#fff" opacity="0.06"/><circle cx="258" cy="318" r="14" fill="#5cb85c"/><rect x="306" y="294" width="80" height="48" rx="14" fill="#fff" opacity="0.06"/><circle cx="346" cy="318" r="14" fill="#9b59b6"/><rect x="394" y="294" width="80" height="48" rx="14" fill="#fff" opacity="0.06"/><circle cx="434" cy="318" r="14" fill="#e74c3c"/><rect x="482" y="294" width="80" height="48" rx="14" fill="#fff" opacity="0.06"/><circle cx="522" cy="318" r="14" fill="#e67e22"/><rect x="570" y="294" width="80" height="48" rx="14" fill="#fff" opacity="0.06"/><circle cx="610" cy="318" r="14" fill="#f1c40f"/><rect x="300" y="18" width="200" height="36" rx="18" fill="none" stroke="#ff77c7" stroke-width="2"/><text x="400" y="42" text-anchor="middle" font-size="15" font-weight="700" fill="#ff77c7" font-family="system-ui,sans-serif" letter-spacing="2">F R E E</text><text x="400" y="392" text-anchor="middle" font-size="42" font-weight="900" fill="#ffb3e0" font-family="system-ui,sans-serif" letter-spacing="3">FREE SPIN</text><text x="400" y="424" text-anchor="middle" font-size="14" font-weight="500" fill="rgba(255,255,255,.65)" font-family="system-ui,sans-serif" letter-spacing="5">免 费 旋 转 × 1 0</text></svg>