<svg xmlns="http://www.w3.org/2000/svg" viewBox="0 0 800 450" preserveAspectRatio="xMidYMid slice"><defs><linearGradient id="cellbg" x1="0" y1="0" x2="0" y2="1"><stop offset="0" stop-color="#fff" stop-opacity=".06"/><stop offset="1" stop-color="#fff" stop-opacity=".02"/></linearGradient><linearGradient id="hlbg" x1="0" y1="0" x2="0" y2="1"><stop offset="0" stop-color="#ffc8eb" stop-opacity=".4"/><stop offset="1" stop-color="#d63b8a" stop-opacity=".25"/></linearGradient><radialGradient id="st1" cx="50%" cy="0%" r="55%"><stop offset="0" stop-color="#ffa0dc" stop-opacity=".32"/><stop offset="1" stop-color="#ffa0dc" stop-opacity="0"/></radialGradient><radialGradient id="st2" cx="50%" cy="100%" r="60%"><stop offset="0" stop-color="#e678c8" stop-opacity=".22"/><stop offset="1" stop-color="#e678c8" stop-opacity="0"/></radialGradient><linearGradient id="stbg" x1="0" y1="0" x2="0" y2="1"><stop offset="0" stop-color="#6b2a5a"/><stop offset="1" stop-color="#3a1440"/></linearGradient></defs><rect width="800" height="450" fill="url(#stbg)"/><rect width="800" height="450" fill="url(#st1)"/><rect width="800" height="450" fill="url(#st2)"/><rect x="44" y="44" width="115.33333333333333" height="69.2" rx="8" fill="url(#cellbg)"/><svg x="74.67866666666666" y="51.611999999999995" width="53.976000000000006" height="53.976000000000006" viewBox="0 0 100 100"><ellipse cx="50" cy="86" rx="26" ry="3" fill="#000" opacity=".12"/><path d="M18 44 Q22 76 54 78 Q84 76 84 46 Q82 44 78 46 Q74 72 50 72 Q28 70 26 46 Q22 42 18 44 Z" fill="url(#sw-banana)" stroke="#0a0a0a" stroke-width="2.2" stroke-linejoin="round"/><path d="M22 48 Q28 68 50 70" stroke="#fff" stroke-width="2" fill="none" opacity=".35" stroke-linecap="round"/><circle cx="20" cy="42" r="2" fill="#0a0a0a"/><circle cx="82" cy="44" r="2" fill="#0a0a0a"/></svg><rect x="163.33333333333331" y="44" width="115.33333333333333" height="69.2" rx="8" fill="url(#cellbg)"/><svg x="194.01199999999997" y="51.611999999999995" width="53.976000000000006" height="53.976000000000006" viewBox="0 0 100 100"><ellipse cx="50" cy="86" rx="26" ry="3" fill="#000" opacity=".12"/><path d="M14 50 L26 42 L26 58 Z" fill="url(#sw-blue)" stroke="#0a0a0a" stroke-width="1.8" stroke-linejoin="round"/><path d="M86 50 L74 42 L74 58 Z" fill="url(#sw-blue)" stroke="#0a0a0a" stroke-width="1.8" stroke-linejoin="round"/><rect x="22" y="32" width="56" height="36" rx="12" fill="url(#sw-blue)" stroke="#0a0a0a" stroke-width="2.4"/><ellipse cx="36" cy="42" rx="6" ry="3.5" fill="#fff" opacity="0.65"/><path d="M30 60 Q50 66 70 60" stroke="#0a0a0a" stroke-width="1" fill="none" opacity=".2"/></svg><rect x="282.66666666666663" y="44" width="115.33333333333333" height="69.2" rx="8" fill="url(#cellbg)"/><svg x="313.3453333333333" y="51.611999999999995" width="53.976000000000006" height="53.976000000000006" viewBox="0 0 100 100"><ellipse cx="50" cy="82" rx="30" ry="3" fill="#000" opacity=".12"/><path d="M14 42 C14 42 50 12 86 42 C78 68 60 82 50 82 C40 82 22 68 14 42 Z" fill="url(#sw-green)" stroke="#0a0a0a" stroke-width="2.2" stroke-linejoin="round"/><path d="M20 44 C20 44 50 20 80 44 C74 64 60 76 50 76 C40 76 26 64 20 44 Z" fill="url(#sw-watermelon)" stroke="#0a0a0a" stroke-width="1.6"/><circle cx="40" cy="52" r="1.6" fill="#0a0a0a"/><circle cx="54" cy="48" r="1.6" fill="#0a0a0a"/><circle cx="60" cy="58" r="1.6" fill="#0a0a0a"/><circle cx="46" cy="62" r="1.6" fill="#0a0a0a"/><circle cx="34" cy="58" r="1.6" fill="#0a0a0a"/></svg><rect x="402" y="44" width="115.33333333333333" height="69.2" rx="8" fill="url(#cellbg)"/><svg x="432.6786666666667" y="51.611999999999995" width="53.976000000000006" height="53.976000000000006" viewBox="0 0 100 100"><ellipse cx="50" cy="86" rx="26" ry="3" fill="#000" opacity=".12"/><path d="M14 50 L26 42 L26 58 Z" fill="url(#sw-orange)" stroke="#0a0a0a" stroke-width="1.8" stroke-linejoin="round"/><path d="M86 50 L74 42 L74 58 Z" fill="url(#sw-orange)" stroke="#0a0a0a" stroke-width="1.8" stroke-linejoin="round"/><rect x="22" y="32" width="56" height="36" rx="12" fill="url(#sw-orange)" stroke="#0a0a0a" stroke-width="2.4"/><ellipse cx="36" cy="42" rx="6" ry="3.5" fill="#fff" opacity="0.65"/><path d="M30 60 Q50 66 70 60" stroke="#0a0a0a" stroke-width="1" fill="none" opacity=".2"/></svg><rect x="521.3333333333333" y="44" width="115.33333333333333" height="69.2" rx="8" fill="url(#cellbg)"/><svg x="552.0119999999998" y="51.611999999999995" width="53.976000000000006" height="53.976000000000006" viewBox="0 0 100 100"><ellipse cx="50" cy="86" rx="26" ry="3" fill="#000" opacity=".12"/><path d="M14 50 L26 42 L26 58 Z" fill="url(#sw-blue)" stroke="#0a0a0a" stroke-width="1.8" stroke-linejoin="round"/><path d="M86 50 L74 42 L74 58 Z" fill="url(#sw-blue)" stroke="#0a0a0a" stroke-width="1.8" stroke-linejoin="round"/><rect x="22" y="32" width="56" height="36" rx="12" fill="url(#sw-blue)" stroke="#0a0a0a" stroke-width="2.4"/><ellipse cx="36" cy="42" rx="6" ry="3.5" fill="#fff" opacity="0.65"/><path d="M30 60 Q50 66 70 60" stroke="#0a0a0a" stroke-width="1" fill="none" opacity=".2"/></svg><rect x="640.6666666666666" y="44" width="115.33333333333333" height="69.2" rx="8" fill="url(#cellbg)"/><svg x="671.3453333333332" y="51.611999999999995" width="53.976000000000006" height="53.976000000000006" viewBox="0 0 100 100"><ellipse cx="50" cy="82" rx="30" ry="3" fill="#000" opacity=".12"/><path d="M14 42 C14 42 50 12 86 42 C78 68 60 82 50 82 C40 82 22 68 14 42 Z" fill="url(#sw-green)" stroke="#0a0a0a" stroke-width="2.2" stroke-linejoin="round"/><path d="M20 44 C20 44 50 20 80 44 C74 64 60 76 50 76 C40 76 26 64 20 44 Z" fill="url(#sw-watermelon)" stroke="#0a0a0a" stroke-width="1.6"/><circle cx="40" cy="52" r="1.6" fill="#0a0a0a"/><circle cx="54" cy="48" r="1.6" fill="#0a0a0a"/><circle cx="60" cy="58" r="1.6" fill="#0a0a0a"/><circle cx="46" cy="62" r="1.6" fill="#0a0a0a"/><circle cx="34" cy="58" r="1.6" fill="#0a0a0a"/></svg><rect x="44" y="117.2" width="115.33333333333333" height="69.2" rx="8" fill="url(#cellbg)"/><svg x="74.67866666666666" y="124.81200000000001" width="53.976000000000006" height="53.976000000000006" viewBox="0 0 100 100"><ellipse cx="50" cy="86" rx="26" ry="3" fill="#000" opacity=".12"/><path d="M14 50 L26 42 L26 58 Z" fill="url(#sw-blue)" stroke="#0a0a0a" stroke-width="1.8" stroke-linejoin="round"/><path d="M86 50 L74 42 L74 58 Z" fill="url(#sw-blue)" stroke="#0a0a0a" stroke-width="1.8" stroke-linejoin="round"/><rect x="22" y="32" width="56" height="36" rx="12" fill="url(#sw-blue)" stroke="#0a0a0a" stroke-width="2.4"/><ellipse cx="36" cy="42" rx="6" ry="3.5" fill="#fff" opacity="0.65"/><path d="M30 60 Q50 66 70 60" stroke="#0a0a0a" stroke-width="1" fill="none" opacity=".2"/></svg><rect x="163.33333333333331" y="117.2" width="115.33333333333333" height="69.2" rx="8" fill="url(#cellbg)"/><rect x="163.33333333333331" y="117.2" width="115.33333333333333" height="69.2" rx="8" fill="url(#hlbg)" stroke="rgba(255,150,200,.9)" stroke-width="1.5"/><svg x="191.24399999999997" y="122.04400000000001" width="59.512" height="59.512" viewBox="0 0 100 100"><ellipse cx="50" cy="86" rx="26" ry="3" fill="#000" opacity=".12"/><path d="M14 50 L26 42 L26 58 Z" fill="url(#sw-blue)" stroke="#0a0a0a" stroke-width="1.8" stroke-linejoin="round"/><path d="M86 50 L74 42 L74 58 Z" fill="url(#sw-blue)" stroke="#0a0a0a" stroke-width="1.8" stroke-linejoin="round"/><rect x="22" y="32" width="56" height="36" rx="12" fill="url(#sw-blue)" stroke="#0a0a0a" stroke-width="2.4"/><ellipse cx="36" cy="42" rx="6" ry="3.5" fill="#fff" opacity="0.65"/><path d="M30 60 Q50 66 70 60" stroke="#0a0a0a" stroke-width="1" fill="none" opacity=".2"/></svg><rect x="282.66666666666663" y="117.2" width="115.33333333333333" height="69.2" rx="8" fill="url(#cellbg)"/><rect x="282.66666666666663" y="117.2" width="115.33333333333333" height="69.2" rx="8" fill="url(#hlbg)" stroke="rgba(255,150,200,.9)" stroke-width="1.5"/><svg x="310.5773333333333" y="122.04400000000001" width="59.512" height="59.512" viewBox="0 0 100 100"><ellipse cx="50" cy="86" rx="26" ry="3" fill="#000" opacity=".12"/><path d="M14 50 L26 42 L26 58 Z" fill="url(#sw-blue)" stroke="#0a0a0a" stroke-width="1.8" stroke-linejoin="round"/><path d="M86 50 L74 42 L74 58 Z" fill="url(#sw-blue)" stroke="#0a0a0a" stroke-width="1.8" stroke-linejoin="round"/><rect x="22" y="32" width="56" height="36" rx="12" fill="url(#sw-blue)" stroke="#0a0a0a" stroke-width="2.4"/><ellipse cx="36" cy="42" rx="6" ry="3.5" fill="#fff" opacity="0.65"/><path d="M30 60 Q50 66 70 60" stroke="#0a0a0a" stroke-width="1" fill="none" opacity=".2"/></svg><rect x="402" y="117.2" width="115.33333333333333" height="69.2" rx="8" fill="url(#cellbg)"/><rect x="402" y="117.2" width="115.33333333333333" height="69.2" rx="8" fill="url(#hlbg)" stroke="rgba(255,150,200,.9)" stroke-width="1.5"/><svg x="429.91066666666666" y="122.04400000000001" width="59.512" height="59.512" viewBox="0 0 100 100"><ellipse cx="50" cy="86" rx="26" ry="3" fill="#000" opacity=".12"/><path d="M14 50 L26 42 L26 58 Z" fill="url(#sw-orange)" stroke="#0a0a0a" stroke-width="1.8" stroke-linejoin="round"/><path d="M86 50 L74 42 L74 58 Z" fill="url(#sw-orange)" stroke="#0a0a0a" stroke-width="1.8" stroke-linejoin="round"/><rect x="22" y="32" width="56" height="36" rx="12" fill="url(#sw-orange)" stroke="#0a0a0a" stroke-width="2.4"/><ellipse cx="36" cy="42" rx="6" ry="3.5" fill="#fff" opacity="0.65"/><path d="M30 60 Q50 66 70 60" stroke="#0a0a0a" stroke-width="1" fill="none" opacity=".2"/></svg><rect x="521.3333333333333" y="117.2" width="115.33333333333333" height="69.2" rx="8" fill="url(#cellbg)"/><rect x="521.3333333333333" y="117.2" width="115.33333333333333" height="69.2" rx="8" fill="url(#hlbg)" stroke="rgba(255,150,200,.9)" stroke-width="1.5"/><svg x="549.2439999999999" y="122.04400000000001" width="59.512" height="59.512" viewBox="0 0 100 100"><ellipse cx="50" cy="82" rx="30" ry="3" fill="#000" opacity=".12"/><path d="M14 42 C14 42 50 12 86 42 C78 68 60 82 50 82 C40 82 22 68 14 42 Z" fill="url(#sw-green)" stroke="#0a0a0a" stroke-width="2.2" stroke-linejoin="round"/><path d="M20 44 C20 44 50 20 80 44 C74 64 60 76 50 76 C40 76 26 64 20 44 Z" fill="url(#sw-watermelon)" stroke="#0a0a0a" stroke-width="1.6"/><circle cx="40" cy="52" r="1.6" fill="#0a0a0a"/><circle cx="54" cy="48" r="1.6" fill="#0a0a0a"/><circle cx="60" cy="58" r="1.6" fill="#0a0a0a"/><circle cx="46" cy="62" r="1.6" fill="#0a0a0a"/><circle cx="34" cy="58" r="1.6" fill="#0a0a0a"/></svg><rect x="640.6666666666666" y="117.2" width="115.33333333333333" height="69.2" rx="8" fill="url(#cellbg)"/><svg x="671.3453333333332" y="124.81200000000001" width="53.976000000000006" height="53.976000000000006" viewBox="0 0 100 100"><ellipse cx="50" cy="86" rx="26" ry="3" fill="#000" opacity=".12"/><path d="M14 50 L26 42 L26 58 Z" fill="url(#sw-blue)" stroke="#0a0a0a" stroke-width="1.8" stroke-linejoin="round"/><path d="M86 50 L74 42 L74 58 Z" fill="url(#sw-blue)" stroke="#0a0a0a" stroke-width="1.8" stroke-linejoin="round"/><rect x="22" y="32" width="56" height="36" rx="12" fill="url(#sw-blue)" stroke="#0a0a0a" stroke-width="2.4"/><ellipse cx="36" cy="42" rx="6" ry="3.5" fill="#fff" opacity="0.65"/><path d="M30 60 Q50 66 70 60" stroke="#0a0a0a" stroke-width="1" fill="none" opacity=".2"/></svg><rect x="44" y="190.4" width="115.33333333333333" height="69.2" rx="8" fill="url(#cellbg)"/><rect x="44" y="190.4" width="115.33333333333333" height="69.2" rx="8" fill="url(#hlbg)" stroke="rgba(255,150,200,.9)" stroke-width="1.5"/><svg x="71.91066666666666" y="195.244" width="59.512" height="59.512" viewBox="0 0 100 100"><ellipse cx="50" cy="82" rx="30" ry="3" fill="#000" opacity=".12"/><path d="M14 42 C14 42 50 12 86 42 C78 68 60 82 50 82 C40 82 22 68 14 42 Z" fill="url(#sw-green)" stroke="#0a0a0a" stroke-width="2.2" stroke-linejoin="round"/><path d="M20 44 C20 44 50 20 80 44 C74 64 60 76 50 76 C40 76 26 64 20 44 Z" fill="url(#sw-watermelon)" stroke="#0a0a0a" stroke-width="1.6"/><circle cx="40" cy="52" r="1.6" fill="#0a0a0a"/><circle cx="54" cy="48" r="1.6" fill="#0a0a0a"/><circle cx="60" cy="58" r="1.6" fill="#0a0a0a"/><circle cx="46" cy="62" r="1.6" fill="#0a0a0a"/><circle cx="34" cy="58" r="1.6" fill="#0a0a0a"/></svg><rect x="163.33333333333331" y="190.4" width="115.33333333333333" height="69.2" rx="8" fill="url(#cellbg)"/><rect x="163.33333333333331" y="190.4" width="115.33333333333333" height="69.2" rx="8" fill="url(#hlbg)" stroke="rgba(255,150,200,.9)" stroke-width="1.5"/><svg x="191.24399999999997" y="195.244" width="59.512" height="59.512" viewBox="0 0 100 100"><ellipse cx="50" cy="82" rx="30" ry="3" fill="#000" opacity=".12"/><path d="M14 42 C14 42 50 12 86 42 C78 68 60 82 50 82 C40 82 22 68 14 42 Z" fill="url(#sw-green)" stroke="#0a0a0a" stroke-width="2.2" stroke-linejoin="round"/><path d="M20 44 C20 44 50 20 80 44 C74 64 60 76 50 76 C40 76 26 64 20 44 Z" fill="url(#sw-watermelon)" stroke="#0a0a0a" stroke-width="1.6"/><circle cx="40" cy="52" r="1.6" fill="#0a0a0a"/><circle cx="54" cy="48" r="1.6" fill="#0a0a0a"/><circle cx="60" cy="58" r="1.6" fill="#0a0a0a"/><circle cx="46" cy="62" r="1.6" fill="#0a0a0a"/><circle cx="34" cy="58" r="1.6" fill="#0a0a0a"/></svg><rect x="282.66666666666663" y="190.4" width="115.33333333333333" height="69.2" rx="8" fill="url(#cellbg)"/><rect x="282.66666666666663" y="190.4" width="115.33333333333333" height="69.2" rx="8" fill="url(#hlbg)" stroke="rgba(255,150,200,.9)" stroke-width="1.5"/><svg x="310.5773333333333" y="195.244" width="59.512" height="59.512" viewBox="0 0 100 100"><ellipse cx="50" cy="86" rx="26" ry="3" fill="#000" opacity=".12"/><path d="M14 50 L26 42 L26 58 Z" fill="url(#sw-blue)" stroke="#0a0a0a" stroke-width="1.8" stroke-linejoin="round"/><path d="M86 50 L74 42 L74 58 Z" fill="url(#sw-blue)" stroke="#0a0a0a" stroke-width="1.8" stroke-linejoin="round"/><rect x="22" y="32" width="56" height="36" rx="12" fill="url(#sw-blue)" stroke="#0a0a0a" stroke-width="2.4"/><ellipse cx="36" cy="42" rx="6" ry="3.5" fill="#fff" opacity="0.65"/><path d="M30 60 Q50 66 70 60" stroke="#0a0a0a" stroke-width="1" fill="none" opacity=".2"/></svg><rect x="402" y="190.4" width="115.33333333333333" height="69.2" rx="8" fill="url(#cellbg)"/><rect x="402" y="190.4" width="115.33333333333333" height="69.2" rx="8" fill="url(#hlbg)" stroke="rgba(255,150,200,.9)" stroke-width="1.5"/><svg x="429.91066666666666" y="195.244" width="59.512" height="59.512" viewBox="0 0 100 100"><ellipse cx="50" cy="86" rx="26" ry="3" fill="#000" opacity=".12"/><path d="M14 50 L26 42 L26 58 Z" fill="url(#sw-orange)" stroke="#0a0a0a" stroke-width="1.8" stroke-linejoin="round"/><path d="M86 50 L74 42 L74 58 Z" fill="url(#sw-orange)" stroke="#0a0a0a" stroke-width="1.8" stroke-linejoin="round"/><rect x="22" y="32" width="56" height="36" rx="12" fill="url(#sw-orange)" stroke="#0a0a0a" stroke-width="2.4"/><ellipse cx="36" cy="42" rx="6" ry="3.5" fill="#fff" opacity="0.65"/><path d="M30 60 Q50 66 70 60" stroke="#0a0a0a" stroke-width="1" fill="none" opacity=".2"/></svg><rect x="521.3333333333333" y="190.4" width="115.33333333333333" height="69.2" rx="8" fill="url(#cellbg)"/><rect x="521.3333333333333" y="190.4" width="115.33333333333333" height="69.2" rx="8" fill="url(#hlbg)" stroke="rgba(255,150,200,.9)" stroke-width="1.5"/><svg x="549.2439999999999" y="195.244" width="59.512" height="59.512" viewBox="0 0 100 100"><ellipse cx="50" cy="86" rx="26" ry="3" fill="#000" opacity=".12"/><path d="M14 50 L26 42 L26 58 Z" fill="url(#sw-orange)" stroke="#0a0a0a" stroke-width="1.8" stroke-linejoin="round"/><path d="M86 50 L74 42 L74 58 Z" fill="url(#sw-orange)" stroke="#0a0a0a" stroke-width="1.8" stroke-linejoin="round"/><rect x="22" y="32" width="56" height="36" rx="12" fill="url(#sw-orange)" stroke="#0a0a0a" stroke-width="2.4"/><ellipse cx="36" cy="42" rx="6" ry="3.5" fill="#fff" opacity="0.65"/><path d="M30 60 Q50 66 70 60" stroke="#0a0a0a" stroke-width="1" fill="none" opacity=".2"/></svg><rect x="640.6666666666666" y="190.4" width="115.33333333333333" height="69.2" rx="8" fill="url(#cellbg)"/><rect x="640.6666666666666" y="190.4" width="115.33333333333333" height="69.2" rx="8" fill="url(#hlbg)" stroke="rgba(255,150,200,.9)" stroke-width="1.5"/><svg x="668.5773333333333" y="195.244" width="59.512" height="59.512" viewBox="0 0 100 100"><ellipse cx="50" cy="82" rx="30" ry="3" fill="#000" opacity=".12"/><path d="M14 42 C14 42 50 12 86 42 C78 68 60 82 50 82 C40 82 22 68 14 42 Z" fill="url(#sw-green)" stroke="#0a0a0a" stroke-width="2.2" stroke-linejoin="round"/><path d="M20 44 C20 44 50 20 80 44 C74 64 60 76 50 76 C40 76 26 64 20 44 Z" fill="url(#sw-watermelon)" stroke="#0a0a0a" stroke-width="1.6"/><circle cx="40" cy="52" r="1.6" fill="#0a0a0a"/><circle cx="54" cy="48" r="1.6" fill="#0a0a0a"/><circle cx="60" cy="58" r="1.6" fill="#0a0a0a"/><circle cx="46" cy="62" r="1.6" fill="#0a0a0a"/><circle cx="34" cy="58" r="1.6" fill="#0a0a0a"/></svg><rect x="44" y="263.6" width="115.33333333333333" height="69.2" rx="8" fill="url(#cellbg)"/><rect x="44" y="263.6" width="115.33333333333333" height="69.2" rx="8" fill="url(#hlbg)" stroke="rgba(255,150,200,.9)" stroke-width="1.5"/><svg x="71.91066666666666" y="268.4440000000001" width="59.512" height="59.512" viewBox="0 0 100 100"><ellipse cx="50" cy="82" rx="30" ry="3" fill="#000" opacity=".12"/><path d="M14 42 C14 42 50 12 86 42 C78 68 60 82 50 82 C40 82 22 68 14 42 Z" fill="url(#sw-green)" stroke="#0a0a0a" stroke-width="2.2" stroke-linejoin="round"/><path d="M20 44 C20 44 50 20 80 44 C74 64 60 76 50 76 C40 76 26 64 20 44 Z" fill="url(#sw-watermelon)" stroke="#0a0a0a" stroke-width="1.6"/><circle cx="40" cy="52" r="1.6" fill="#0a0a0a"/><circle cx="54" cy="48" r="1.6" fill="#0a0a0a"/><circle cx="60" cy="58" r="1.6" fill="#0a0a0a"/><circle cx="46" cy="62" r="1.6" fill="#0a0a0a"/><circle cx="34" cy="58" r="1.6" fill="#0a0a0a"/></svg><rect x="163.33333333333331" y="263.6" width="115.33333333333333" height="69.2" rx="8" fill="url(#cellbg)"/><rect x="163.33333333333331" y="263.6" width="115.33333333333333" height="69.2" rx="8" fill="url(#hlbg)" stroke="rgba(255,150,200,.9)" stroke-width="1.5"/><svg x="191.24399999999997" y="268.4440000000001" width="59.512" height="59.512" viewBox="0 0 100 100"><ellipse cx="50" cy="86" rx="26" ry="3" fill="#000" opacity=".12"/><path d="M14 50 L26 42 L26 58 Z" fill="url(#sw-blue)" stroke="#0a0a0a" stroke-width="1.8" stroke-linejoin="round"/><path d="M86 50 L74 42 L74 58 Z" fill="url(#sw-blue)" stroke="#0a0a0a" stroke-width="1.8" stroke-linejoin="round"/><rect x="22" y="32" width="56" height="36" rx="12" fill="url(#sw-blue)" stroke="#0a0a0a" stroke-width="2.4"/><ellipse cx="36" cy="42" rx="6" ry="3.5" fill="#fff" opacity="0.65"/><path d="M30 60 Q50 66 70 60" stroke="#0a0a0a" stroke-width="1" fill="none" opacity=".2"/></svg><rect x="282.66666666666663" y="263.6" width="115.33333333333333" height="69.2" rx="8" fill="url(#cellbg)"/><rect x="282.66666666666663" y="263.6" width="115.33333333333333" height="69.2" rx="8" fill="url(#hlbg)" stroke="rgba(255,150,200,.9)" stroke-width="1.5"/><svg x="310.5773333333333" y="268.4440000000001" width="59.512" height="59.512" viewBox="0 0 100 100"><ellipse cx="50" cy="86" rx="26" ry="3" fill="#000" opacity=".12"/><path d="M14 50 L26 42 L26 58 Z" fill="url(#sw-orange)" stroke="#0a0a0a" stroke-width="1.8" stroke-linejoin="round"/><path d="M86 50 L74 42 L74 58 Z" fill="url(#sw-orange)" stroke="#0a0a0a" stroke-width="1.8" stroke-linejoin="round"/><rect x="22" y="32" width="56" height="36" rx="12" fill="url(#sw-orange)" stroke="#0a0a0a" stroke-width="2.4"/><ellipse cx="36" cy="42" rx="6" ry="3.5" fill="#fff" opacity="0.65"/><path d="M30 60 Q50 66 70 60" stroke="#0a0a0a" stroke-width="1" fill="none" opacity=".2"/></svg><rect x="402" y="263.6" width="115.33333333333333" height="69.2" rx="8" fill="url(#cellbg)"/><rect x="402" y="263.6" width="115.33333333333333" height="69.2" rx="8" fill="url(#hlbg)" stroke="rgba(255,150,200,.9)" stroke-width="1.5"/><svg x="429.91066666666666" y="268.4440000000001" width="59.512" height="59.512" viewBox="0 0 100 100"><ellipse cx="50" cy="86" rx="26" ry="3" fill="#000" opacity=".12"/><path d="M14 50 L26 42 L26 58 Z" fill="url(#sw-blue)" stroke="#0a0a0a" stroke-width="1.8" stroke-linejoin="round"/><path d="M86 50 L74 42 L74 58 Z" fill="url(#sw-blue)" stroke="#0a0a0a" stroke-width="1.8" stroke-linejoin="round"/><rect x="22" y="32" width="56" height="36" rx="12" fill="url(#sw-blue)" stroke="#0a0a0a" stroke-width="2.4"/><ellipse cx="36" cy="42" rx="6" ry="3.5" fill="#fff" opacity="0.65"/><path d="M30 60 Q50 66 70 60" stroke="#0a0a0a" stroke-width="1" fill="none" opacity=".2"/></svg><rect x="521.3333333333333" y="263.6" width="115.33333333333333" height="69.2" rx="8" fill="url(#cellbg)"/><rect x="521.3333333333333" y="263.6" width="115.33333333333333" height="69.2" rx="8" fill="url(#hlbg)" stroke="rgba(255,150,200,.9)" stroke-width="1.5"/><svg x="549.2439999999999" y="268.4440000000001" width="59.512" height="59.512" viewBox="0 0 100 100"><ellipse cx="50" cy="86" rx="26" ry="3" fill="#000" opacity=".12"/><path d="M14 50 L26 42 L26 58 Z" fill="url(#sw-orange)" stroke="#0a0a0a" stroke-width="1.8" stroke-linejoin="round"/><path d="M86 50 L74 42 L74 58 Z" fill="url(#sw-orange)" stroke="#0a0a0a" stroke-width="1.8" stroke-linejoin="round"/><rect x="22" y="32" width="56" height="36" rx="12" fill="url(#sw-orange)" stroke="#0a0a0a" stroke-width="2.4"/><ellipse cx="36" cy="42" rx="6" ry="3.5" fill="#fff" opacity="0.65"/><path d="M30 60 Q50 66 70 60" stroke="#0a0a0a" stroke-width="1" fill="none" opacity=".2"/></svg><rect x="640.6666666666666" y="263.6" width="115.33333333333333" height="69.2" rx="8" fill="url(#cellbg)"/><rect x="640.6666666666666" y="263.6" width="115.33333333333333" height="69.2" rx="8" fill="url(#hlbg)" stroke="rgba(255,150,200,.9)" stroke-width="1.5"/><svg x="668.5773333333333" y="268.4440000000001" width="59.512" height="59.512" viewBox="0 0 100 100"><ellipse cx="50" cy="86" rx="26" ry="3" fill="#000" opacity=".12"/><path d="M14 50 L26 42 L26 58 Z" fill="url(#sw-orange)" stroke="#0a0a0a" stroke-width="1.8" stroke-linejoin="round"/><path d="M86 50 L74 42 L74 58 Z" fill="url(#sw-orange)" stroke="#0a0a0a" stroke-width="1.8" stroke-linejoin="round"/><rect x="22" y="32" width="56" height="36" rx="12" fill="url(#sw-orange)" stroke="#0a0a0a" stroke-width="2.4"/><ellipse cx="36" cy="42" rx="6" ry="3.5" fill="#fff" opacity="0.65"/><path d="M30 60 Q50 66 70 60" stroke="#0a0a0a" stroke-width="1" fill="none" opacity=".2"/></svg><rect x="44" y="336.8" width="115.33333333333333" height="69.2" rx="8" fill="url(#cellbg)"/><rect x="44" y="336.8" width="115.33333333333333" height="69.2" rx="8" fill="url(#hlbg)" stroke="rgba(255,150,200,.9)" stroke-width="1.5"/><svg x="71.91066666666666" y="341.644" width="59.512" height="59.512" viewBox="0 0 100 100"><ellipse cx="50" cy="82" rx="30" ry="3" fill="#000" opacity=".12"/><path d="M14 42 C14 42 50 12 86 42 C78 68 60 82 50 82 C40 82 22 68 14 42 Z" fill="url(#sw-green)" stroke="#0a0a0a" stroke-width="2.2" stroke-linejoin="round"/><path d="M20 44 C20 44 50 20 80 44 C74 64 60 76 50 76 C40 76 26 64 20 44 Z" fill="url(#sw-watermelon)" stroke="#0a0a0a" stroke-width="1.6"/><circle cx="40" cy="52" r="1.6" fill="#0a0a0a"/><circle cx="54" cy="48" r="1.6" fill="#0a0a0a"/><circle cx="60" cy="58" r="1.6" fill="#0a0a0a"/><circle cx="46" cy="62" r="1.6" fill="#0a0a0a"/><circle cx="34" cy="58" r="1.6" fill="#0a0a0a"/></svg><rect x="163.33333333333331" y="336.8" width="115.33333333333333" height="69.2" rx="8" fill="url(#cellbg)"/><rect x="163.33333333333331" y="336.8" width="115.33333333333333" height="69.2" rx="8" fill="url(#hlbg)" stroke="rgba(255,150,200,.9)" stroke-width="1.5"/><svg x="191.24399999999997" y="341.644" width="59.512" height="59.512" viewBox="0 0 100 100"><ellipse cx="50" cy="82" rx="30" ry="3" fill="#000" opacity=".12"/><path d="M14 42 C14 42 50 12 86 42 C78 68 60 82 50 82 C40 82 22 68 14 42 Z" fill="url(#sw-green)" stroke="#0a0a0a" stroke-width="2.2" stroke-linejoin="round"/><path d="M20 44 C20 44 50 20 80 44 C74 64 60 76 50 76 C40 76 26 64 20 44 Z" fill="url(#sw-watermelon)" stroke="#0a0a0a" stroke-width="1.6"/><circle cx="40" cy="52" r="1.6" fill="#0a0a0a"/><circle cx="54" cy="48" r="1.6" fill="#0a0a0a"/><circle cx="60" cy="58" r="1.6" fill="#0a0a0a"/><circle cx="46" cy="62" r="1.6" fill="#0a0a0a"/><circle cx="34" cy="58" r="1.6" fill="#0a0a0a"/></svg><rect x="282.66666666666663" y="336.8" width="115.33333333333333" height="69.2" rx="8" fill="url(#cellbg)"/><rect x="282.66666666666663" y="336.8" width="115.33333333333333" height="69.2" rx="8" fill="url(#hlbg)" stroke="rgba(255,150,200,.9)" stroke-width="1.5"/><svg x="310.5773333333333" y="341.644" width="59.512" height="59.512" viewBox="0 0 100 100"><ellipse cx="50" cy="86" rx="26" ry="3" fill="#000" opacity=".12"/><path d="M14 50 L26 42 L26 58 Z" fill="url(#sw-orange)" stroke="#0a0a0a" stroke-width="1.8" stroke-linejoin="round"/><path d="M86 50 L74 42 L74 58 Z" fill="url(#sw-orange)" stroke="#0a0a0a" stroke-width="1.8" stroke-linejoin="round"/><rect x="22" y="32" width="56" height="36" rx="12" fill="url(#sw-orange)" stroke="#0a0a0a" stroke-width="2.4"/><ellipse cx="36" cy="42" rx="6" ry="3.5" fill="#fff" opacity="0.65"/><path d="M30 60 Q50 66 70 60" stroke="#0a0a0a" stroke-width="1" fill="none" opacity=".2"/></svg><rect x="402" y="336.8" width="115.33333333333333" height="69.2" rx="8" fill="url(#cellbg)"/><rect x="402" y="336.8" width="115.33333333333333" height="69.2" rx="8" fill="url(#hlbg)" stroke="rgba(255,150,200,.9)" stroke-width="1.5"/><svg x="429.91066666666666" y="341.644" width="59.512" height="59.512" viewBox="0 0 100 100"><ellipse cx="50" cy="86" rx="26" ry="3" fill="#000" opacity=".12"/><path d="M14 50 L26 42 L26 58 Z" fill="url(#sw-orange)" stroke="#0a0a0a" stroke-width="1.8" stroke-linejoin="round"/><path d="M86 50 L74 42 L74 58 Z" fill="url(#sw-orange)" stroke="#0a0a0a" stroke-width="1.8" stroke-linejoin="round"/><rect x="22" y="32" width="56" height="36" rx="12" fill="url(#sw-orange)" stroke="#0a0a0a" stroke-width="2.4"/><ellipse cx="36" cy="42" rx="6" ry="3.5" fill="#fff" opacity="0.65"/><path d="M30 60 Q50 66 70 60" stroke="#0a0a0a" stroke-width="1" fill="none" opacity=".2"/></svg><rect x="521.3333333333333" y="336.8" width="115.33333333333333" height="69.2" rx="8" fill="url(#cellbg)"/><svg x="552.0119999999998" y="344.41200000000003" width="53.976000000000006" height="53.976000000000006" viewBox="0 0 100 100"><ellipse cx="50" cy="86" rx="26" ry="3" fill="#000" opacity=".12"/><path d="M14 50 L26 42 L26 58 Z" fill="url(#sw-blue)" stroke="#0a0a0a" stroke-width="1.8" stroke-linejoin="round"/><path d="M86 50 L74 42 L74 58 Z" fill="url(#sw-blue)" stroke="#0a0a0a" stroke-width="1.8" stroke-linejoin="round"/><rect x="22" y="32" width="56" height="36" rx="12" fill="url(#sw-blue)" stroke="#0a0a0a" stroke-width="2.4"/><ellipse cx="36" cy="42" rx="6" ry="3.5" fill="#fff" opacity="0.65"/><path d="M30 60 Q50 66 70 60" stroke="#0a0a0a" stroke-width="1" fill="none" opacity=".2"/></svg><rect x="640.6666666666666" y="336.8" width="115.33333333333333" height="69.2" rx="8" fill="url(#cellbg)"/><svg x="671.3453333333332" y="344.41200000000003" width="53.976000000000006" height="53.976000000000006" viewBox="0 0 100 100"><ellipse cx="50" cy="86" rx="26" ry="3" fill="#000" opacity=".12"/><path d="M14 50 L26 42 L26 58 Z" fill="url(#sw-orange)" stroke="#0a0a0a" stroke-width="1.8" stroke-linejoin="round"/><path d="M86 50 L74 42 L74 58 Z" fill="url(#sw-orange)" stroke="#0a0a0a" stroke-width="1.8" stroke-linejoin="round"/><rect x="22" y="32" width="56" height="36" rx="12" fill="url(#sw-orange)" stroke="#0a0a0a" stroke-width="2.4"/><ellipse cx="36" cy="42" rx="6" ry="3.5" fill="#fff" opacity="0.65"/><path d="M30 60 Q50 66 70 60" stroke="#0a0a0a" stroke-width="1" fill="none" opacity=".2"/></svg><rect x="300" y="4" width="200" height="28" rx="14" fill="rgba(0,0,0,.35)" stroke="#e6c200" stroke-width="1.5"/><text x="400" y="23" text-anchor="middle" font-size="12" font-weight="700" fill="#e6c200" font-family="system-ui,sans-serif" letter-spacing="2">SUPER WIN</text><text x="400" y="430" text-anchor="middle" font-size="32" font-weight="900" fill="#ffe37a" font-family="system-ui,sans-serif" letter-spacing="4">SUPER WIN</text></svg>